<?xml version="1.0" standalone="no"?>
<!DOCTYPE svg PUBLIC "-//W3C//DTD SVG 20010904//EN"
 "http://www.w3.org/TR/2001/REC-SVG-20010904/DTD/svg10.dtd">
<svg version="1.0" xmlns="http://www.w3.org/2000/svg"
 width="1000.000000pt" height="1000.000000pt" viewBox="0 0 1000.000000 1000.000000"
 preserveAspectRatio="xMidYMid meet">
<metadata>
Created by potrace 1.14, written by Peter Selinger 2001-2017
</metadata>
<g transform="translate(0.000000,1000.000000) scale(0.100000,-0.100000)"
fill="#000000" stroke="none">
<path d="M4047 9660 c-20 -5 -55 -19 -77 -30 -73 -37 -497 -450 -785 -765
-1140 -1245 -1954 -2658 -2149 -3725 -37 -206 -47 -316 -47 -548 1 -662 154
-1317 447 -1913 107 -217 154 -300 290 -504 313 -472 699 -862 1159 -1170 919
-615 2059 -816 3120 -549 1541 388 2744 1697 3064 3334 66 337 96 768 72 1015
-87 889 -661 2177 -1424 3190 -316 420 -691 826 -822 891 -54 26 -70 29 -160
29 -90 0 -106 -3 -160 -29 -103 -50 -367 -330 -638 -678 -67 -86 -125 -157
-128 -157 -3 -1 -53 56 -110 126 -289 357 -590 686 -994 1089 -381 380 -398
393 -541 400 -44 2 -96 -1 -117 -6z m536 -4012 c222 -282 578 -735 791 -1006
214 -272 392 -490 396 -485 4 4 209 242 455 528 246 286 451 521 456 523 29
11 249 -414 314 -609 280 -842 -22 -1741 -731 -2172 -293 -178 -593 -281 -932
-317 -142 -16 -467 -8 -612 15 -884 139 -1500 717 -1650 1546 -45 249 -46 500
-5 705 64 315 264 687 637 1181 101 134 470 603 475 603 1 0 184 -231 406
-512z"/>
</g>
</svg>
